# xmcd
#
# Track frame offsets:
#	150
#	13800
#	22678
#	35090
#	54518
#	70171
#	86456
#	101125
#	116478
#	128502
#	151388
#	162188
#	185499
#	203303
#	218050
#	231563
#	243338
#	254518
#	274702
#	290931
#
# Disc length: 4028 seconds
#
# Revision: 0
# Processed by: cddbd v1.5.2PL0 Copyright (c) Steve Scherf et al.
# Submitted via: SynApp - FreeCDDB Version: 2.2
#
DISCID=180fba14
DTITLE=Various Artist - The Country Hit Mania
DYEAR=2007
DGENRE=Country
TTITLE0=Texas Lighting - No No Never
TTITLE1=Anita Carter - Love's Ring of Fire
TTITLE2=Johnny Cash - I Walk the Line
TTITLE3=Sheryl Crow - Everyday is A Winding Road
TTITLE4=The Bosshoss - You'll Never Walk Alone
TTITLE5=Uncle Kracker - Follow Me
TTITLE6=Lee Hazlewood - These Boots Are Made for Walk
TTITLE7=Tanja Tucker - Delta Dawn
TTITLE8=Wanda Jackson - Stand by Your Man
TTITLE9=Wynonna Judd - I Want to Know What Love is
TTITLE10=J.J. Cale - After Midnight
TTITLE11=Billy Bob Thornton - Lost Highway
TTITLE12=Hank Williams Jr. - All My Rowdy Friends Are Comi
TTITLE13=Bellamy Brothers - Let Your Love Flow
TTITLE14=Loretta Lynn - Coal Miner's Daughter
TTITLE15=Ryan Adams - Gonna Make You Love Me
TTITLE16=Roger Miller - King of the Road
TTITLE17=Dolly Parton - Honky Tonk Songs
TTITLE18=Alabama - the Closer You Get
TTITLE19=Leroy Pullins - I'm A Nut
EXTD=
EXTT0=
EXTT1=
EXTT2=
EXTT3=
EXTT4=
EXTT5=
EXTT6=
EXTT7=
EXTT8=
EXTT9=
EXTT10=
EXTT11=
EXTT12=
EXTT13=
EXTT14=
EXTT15=
EXTT16=
EXTT17=
EXTT18=
EXTT19=
PLAYORDER=
